<svg xmlns="http://www.w3.org/2000/svg" x="0px" y="0px"
width="30" height="30"
viewBox="0 0 224 224"
style=" fill:#000000;"><g fill="none" fill-rule="nonzero" stroke="none" stroke-width="1" stroke-linecap="butt" stroke-linejoin="miter" stroke-miterlimit="10" stroke-dasharray="" stroke-dashoffset="0" font-family="none" font-weight="none" font-size="none" text-anchor="none" style="mix-blend-mode: normal"><path d="M0,224v-224h224v224z" fill="none"></path><g fill="#212121"><path d="M177.33333,28h-130.66667c-10.31333,0 -18.66667,8.35333 -18.66667,18.66667v130.66667c0,10.31333 8.35333,18.66667 18.66667,18.66667h130.66667c10.31333,0 18.66667,-8.35333 18.66667,-18.66667v-130.66667c0,-10.31333 -8.35333,-18.66667 -18.66667,-18.66667zM159.13333,88.79733c0,0.80267 0,1.596 0,3.20133c0,30.39867 -23.20267,65.604 -65.604,65.604c-12.796,0 -24.79867,-4.004 -35.196,-10.39733c1.596,0 4.004,0 5.6,0c10.39733,0 20.804,-4.004 28.80267,-9.604c-10.39733,0 -18.396,-7.196 -21.59733,-15.99733c1.596,0 3.20133,0.80267 4.004,0.80267c2.39867,0 4.004,0 6.40267,-0.80267c-10.39733,-2.39867 -18.396,-11.2 -18.396,-22.4c3.20133,1.596 6.40267,2.39867 10.39733,3.20133c-6.40267,-5.6 -10.39733,-12.00267 -10.39733,-20.00133c0,-4.004 0.80267,-7.99867 3.20133,-11.2c11.2,13.59867 28,23.20267 47.19867,23.996c0,-1.596 -0.80267,-3.20133 -0.80267,-5.6c0,-12.796 10.39733,-23.20267 23.20267,-23.20267c6.40267,0 12.796,2.39867 16.8,7.196c5.6,-0.80267 10.39733,-3.20133 14.40133,-5.6c-1.596,5.6 -5.6,9.604 -10.39733,12.796c4.79733,-0.80267 8.80133,-1.596 13.59867,-4.004c-3.22,4.816 -7.21467,8.81067 -11.21867,12.012z"></path></g></g></svg>