<svg id="Calque_1" data-name="Calque 1" xmlns="http://www.w3.org/2000/svg" xmlns:xlink="http://www.w3.org/1999/xlink" viewBox="0 0 403.6 308.71"><defs><style>.cls-1{fill:#e29c00;}.cls-2{fill:#9fe0ff;}.cls-10,.cls-11,.cls-12,.cls-13,.cls-21,.cls-3,.cls-4,.cls-7,.cls-8{opacity:0.2;}.cls-3{fill:url(#linear-gradient);}.cls-4{fill:url(#linear-gradient-2);}.cls-26,.cls-5{fill:#4c6ba7;}.cls-5{opacity:0.5;}.cls-6{fill:#c5ecff;}.cls-7{fill:url(#linear-gradient-3);}.cls-8{fill:url(#linear-gradient-4);}.cls-9{fill:#e8f7ff;}.cls-10{fill:url(#linear-gradient-5);}.cls-11{fill:url(#linear-gradient-6);}.cls-12{fill:url(#linear-gradient-7);}.cls-13{fill:url(#linear-gradient-8);}.cls-14{fill:#ffad91;}.cls-15{fill:#39507d;}.cls-16{fill:#a8372c;}.cls-17{fill:#7fc3e3;}.cls-18{fill:#b03a2e;}.cls-19{fill:#e84c3d;}.cls-20{fill:#67463a;}.cls-21{fill:url(#linear-gradient-9);}.cls-22{fill:#dff5ff;}.cls-23,.cls-24,.cls-25{fill:none;stroke-miterlimit:10;}.cls-23{stroke:#e84c3d;}.cls-24{stroke:#33d9b2;stroke-width:1.06px;}.cls-25{stroke:#60ccff;}.cls-27{fill:#d49337;}.cls-28{fill:#f7f1e3;}.cls-29{fill:#aa5d00;}.cls-30{fill:#e69c83;}.cls-31{fill:#218c74;}.cls-32{fill:#26a385;}.cls-33{fill:#33d9b2;}.cls-34{fill:#658edf;}.cls-35{fill:#805749;}</style><linearGradient id="linear-gradient" x1="925.87" y1="497.94" x2="794.5" y2="590.11" gradientTransform="matrix(-1, 0, 0, 1, 1830.68, 0)" gradientUnits="userSpaceOnUse"><stop offset="0" stop-color="#4c6ba7" stop-opacity="0"/><stop offset="1" stop-color="#4c6ba7"/></linearGradient><linearGradient id="linear-gradient-2" x1="1055.2" y1="554.64" x2="923.83" y2="646.81" xlink:href="#linear-gradient"/><linearGradient id="linear-gradient-3" x1="1095.12" y1="468.8" x2="858.52" y2="696.93" xlink:href="#linear-gradient"/><linearGradient id="linear-gradient-4" x1="896.04" y1="513.89" x2="719.11" y2="609.77" xlink:href="#linear-gradient"/><linearGradient id="linear-gradient-5" x1="996.7" y1="591.12" x2="883.3" y2="670.68" gradientTransform="matrix(-1, 0, 0, 1, 1078.31, -385.82)" xlink:href="#linear-gradient"/><linearGradient id="linear-gradient-6" x1="980.73" y1="631.47" x2="929.95" y2="667.1" gradientTransform="matrix(-1, 0, 0, 1, 1078.31, -385.82)" xlink:href="#linear-gradient"/><linearGradient id="linear-gradient-7" x1="1035.42" y1="601.49" x2="986.75" y2="635.64" xlink:href="#linear-gradient"/><linearGradient id="linear-gradient-8" x1="1011.45" y1="575.58" x2="946.81" y2="620.93" gradientTransform="matrix(-1, 0, 0, 1, 1078.31, -385.82)" xlink:href="#linear-gradient"/><linearGradient id="linear-gradient-9" x1="857.75" y1="526.72" x2="904.09" y2="526.72" gradientTransform="matrix(-1, 0, 0, 1, 1830.68, 0)" gradientUnits="userSpaceOnUse"><stop offset="0" stop-color="#4c6ba7"/><stop offset="1" stop-color="#4c6ba7" stop-opacity="0"/></linearGradient></defs><title>Sans titre - 1</title><rect class="cls-1" x="838.29" y="407.51" width="304.54" height="265.34" rx="83.77" ry="83.77" transform="translate(-881.44 14.99) rotate(-21.51)"/><path class="cls-2" d="M984.39,491.55l87.7,50.64a5.55,5.55,0,0,0,8.32-4.8V473.08a14,14,0,0,0-7-12.08l-87.71-50.63a5.54,5.54,0,0,0-8.31,4.8v64.31A13.92,13.92,0,0,0,984.39,491.55Z" transform="translate(-752.37 -385.82)"/><path class="cls-3" d="M1062,602.22H1046.8a24.52,24.52,0,0,1-12.25-3.28L904.21,523.69l29.92-17.28h20Z" transform="translate(-752.37 -385.82)"/><path class="cls-4" d="M910.12,691H895a24.53,24.53,0,0,1-12.26-3.28L752.37,612.48l103.35-61.54h20Z" transform="translate(-752.37 -385.82)"/><path class="cls-5" d="M1006.88,638.34,919.74,690a17.82,17.82,0,0,1-18,.11l-124.3-71.77a6.09,6.09,0,0,1-.06-10.52l87.14-51.67a17.8,17.8,0,0,1,18-.1l124.3,71.76A6.09,6.09,0,0,1,1006.88,638.34Z" transform="translate(-752.37 -385.82)"/><path class="cls-5" d="M1087.78,591.11l-16.92,9.77a17.8,17.8,0,0,1-17.8,0l-124.3-71.76a6.09,6.09,0,0,1,0-10.55l16.92-9.77a17.8,17.8,0,0,1,17.8,0l124.3,71.76A6.09,6.09,0,0,1,1087.78,591.11Z" transform="translate(-752.37 -385.82)"/><path class="cls-6" d="M774.42,611.5h0v-6.28l4.27.37,85.86-50.91a17.77,17.77,0,0,1,18-.11l121.78,70.31,5.57.48v6.81h0a6,6,0,0,1-3,4.68l-87.14,51.68a17.8,17.8,0,0,1-18,.1l-124.3-71.77A6,6,0,0,1,774.42,611.5Z" transform="translate(-752.37 -385.82)"/><path class="cls-7" d="M774.42,611.5h0v-6.28l4.27.37,85.86-50.91a17.77,17.77,0,0,1,18-.11l121.78,70.31,5.57.48v6.81h0a6,6,0,0,1-3,4.68l-87.14,51.68a17.8,17.8,0,0,1-18,.1l-124.3-71.77A6,6,0,0,1,774.42,611.5Z" transform="translate(-752.37 -385.82)"/><path class="cls-6" d="M928.86,517.46l16.82-9.71a17.8,17.8,0,0,1,17.8,0l112.42,64.9,14.93,5.61v6.53a6.06,6.06,0,0,1-3,5.28l-16.92,9.77a17.8,17.8,0,0,1-17.8,0l-124.3-71.77a6,6,0,0,1-3-5.17h0v-6.62Z" transform="translate(-752.37 -385.82)"/><path class="cls-8" d="M928.86,517.46l16.82-9.71a17.8,17.8,0,0,1,17.8,0l112.42,64.9,14.93,5.61v6.53a6.06,6.06,0,0,1-3,5.28l-16.92,9.77a17.8,17.8,0,0,1-17.8,0l-124.3-71.77a6,6,0,0,1-3-5.17h0v-6.62Z" transform="translate(-752.37 -385.82)"/><path class="cls-9" d="M1006.88,630.32,919.74,682a17.82,17.82,0,0,1-18,.11l-124.3-71.77a6.08,6.08,0,0,1-.06-10.51l87.14-51.68a17.8,17.8,0,0,1,18-.1l124.3,71.76A6.09,6.09,0,0,1,1006.88,630.32Z" transform="translate(-752.37 -385.82)"/><polygon class="cls-10" points="33.2 229.19 195.44 229.19 210.73 238.02 189.54 247.95 65.7 247.95 33.2 229.19"/><polygon class="cls-11" points="145.86 259.13 161.14 267.97 139.95 277.9 117.56 277.9 85.06 259.13 145.86 259.13"/><path class="cls-12" d="M775.39,608.36h57.52l15.15,8.82-21.19,9.93H806.53l-29.07-16.78A5.94,5.94,0,0,1,775.39,608.36Z" transform="translate(-752.37 -385.82)"/><polygon class="cls-13" points="63.78 191.01 129.03 191.01 144.02 199.74 122.83 209.67 32.31 209.67 63.78 191.01"/><path class="cls-14" d="M875.23,526s2.18,7.68,1.39,9.2-3.11,1.39-3.11,1.39v1.92h-5.89l.26-10.06Z" transform="translate(-752.37 -385.82)"/><path class="cls-15" d="M899.13,580s4.3-.73,5.56,0,.66,3-.93,3.44-7.17,2.38-8.32.89a7.88,7.88,0,0,1-1.14-4.07Z" transform="translate(-752.37 -385.82)"/><path class="cls-16" d="M877,560s6.18-6.36,9.91-6.54,4.7,8.94,4.7,8.94L877.54,567Z" transform="translate(-752.37 -385.82)"/><path class="cls-17" d="M892.23,579.83a1,1,0,0,0,.92-.53,1.06,1.06,0,0,0-.39-1.45l-12.86-7.43a1.06,1.06,0,1,0-1.06,1.83l12.87,7.43A1,1,0,0,0,892.23,579.83Z" transform="translate(-752.37 -385.82)"/><path class="cls-17" d="M865.19,571.9l10.9-6.39a6.55,6.55,0,0,1,6.55,0l5,2.88a3,3,0,0,1,1,1l.54,0v1.75h0a3,3,0,0,1-1.57,2.63L874.7,581l-12.63-7.33V572Z" transform="translate(-752.37 -385.82)"/><path class="cls-6" d="M887.57,572l-12.87,7.33L862.07,572l14-8.2a6.55,6.55,0,0,1,6.55,0l5,2.88A3.05,3.05,0,0,1,887.57,572Z" transform="translate(-752.37 -385.82)"/><path class="cls-18" d="M864.3,563.47s.42,5.67,2.1,7.26,8.56,4.85,11.83,4.32,14.83-5.76,14.83-5.76l.53,12.65s4.06,1.23,5.56-.36.58-18.79-.44-20.3C897,558.76,878.4,563,878.4,563Z" transform="translate(-752.37 -385.82)"/><path class="cls-19" d="M864.28,537.27s-1.59,1-2.21,4.59a41.51,41.51,0,0,0-.59,6.71s2,13.14,2.45,14.38,7.61,5.92,10.41,5.3,5.28-4.37,5-5.89-2.07-9.29-1.83-12.12.6-7.84-1-9.35a13.58,13.58,0,0,0-3.84-2.39Z" transform="translate(-752.37 -385.82)"/><path class="cls-6" d="M860.11,546.53l-.3-.34,1.14-.54a2.3,2.3,0,0,1,.5-.24c2.22-.72,3.2,3.31,6.58,4.57s6.36,0,8.21,2.78,1.72,9-.16,10v0l-1.39.66-.28-.32a16.83,16.83,0,0,1-9.5-2.95s-4-2.47-5-5.25C859.09,552.74,858.8,548.59,860.11,546.53Z" transform="translate(-752.37 -385.82)"/><path class="cls-2" d="M863.46,560.9s-4.05-2.46-5-5.24-1.2-8.64,1.58-9.55c2.21-.71,3.2,3.31,6.57,4.57s6.36,0,8.22,2.78,1.72,9.41-.34,10.13S868,563.8,863.46,560.9Z" transform="translate(-752.37 -385.82)"/><path class="cls-17" d="M874.7,595.6a1.07,1.07,0,0,0,1.06-1.06l0-15.42L871.44,560a1.06,1.06,0,1,0-2.07.47l4.27,19v15.07A1.06,1.06,0,0,0,874.7,595.6Z" transform="translate(-752.37 -385.82)"/><path class="cls-17" d="M863,588.8a1.05,1.05,0,0,0,1-1.06V572.38l-3-17.07a1.06,1.06,0,0,0-2.09.36l2.94,17v15.09A1.05,1.05,0,0,0,863,588.8Z" transform="translate(-752.37 -385.82)"/><path class="cls-17" d="M874.7,591.63a1.06,1.06,0,0,0,.53-2l-11.75-6.78a1.05,1.05,0,0,0-1.05,1.83l11.74,6.78A1,1,0,0,0,874.7,591.63Z" transform="translate(-752.37 -385.82)"/><path class="cls-17" d="M895.89,585.67a1.16,1.16,0,0,0,.56-.16,1.06,1.06,0,0,0,.33-1.46l-7.51-12-1.95-9.88a1.07,1.07,0,0,0-.6-.76,1,1,0,0,0-1,.05l-13.58,7.84a1.06,1.06,0,1,0,1.06,1.83L885.53,564l1.7,8.61a1.07,1.07,0,0,0,.14.35L895,585.17A1.06,1.06,0,0,0,895.89,585.67Z" transform="translate(-752.37 -385.82)"/><path class="cls-2" d="M882.55,562.44l3.23-1.86a1.68,1.68,0,0,1,1.54-.08l.64-.27v1h0a.88.88,0,0,1-.44.86l-8.09,4.68a1,1,0,0,1-1,0l-1.25-.72a.33.33,0,0,1-.16-.29v-1.13Z" transform="translate(-752.37 -385.82)"/><path class="cls-6" d="M877.2,565l1.25.72a1,1,0,0,0,1,0l8.09-4.68a.9.9,0,0,0,0-1.57h0a1.73,1.73,0,0,0-1.73,0l-8.58,4.95A.34.34,0,0,0,877.2,565Z" transform="translate(-752.37 -385.82)"/><path class="cls-18" d="M875.05,540.36a4.71,4.71,0,0,0-1.41,7c2.25,3.58,6.88,13.75,10.15,14.3,2.87.49,3.71-1.5,2.83-4.41S878.08,538.32,875.05,540.36Z" transform="translate(-752.37 -385.82)"/><path class="cls-18" d="M874,539.11a8,8,0,0,1-4,.52c-2.39-.27-5.72-2.36-5.72-2.36v-1.42a40.44,40.44,0,0,0,5.72,1.42c2.58.37,4,.5,4,.5l.8,1.81Z" transform="translate(-752.37 -385.82)"/><path class="cls-20" d="M874.29,532.25l.31-.57a32.24,32.24,0,0,1-.31-4c.09-1,1.46-.66,1.46-2.34a5.7,5.7,0,0,0-7-4.59c-4.59,1-6.62,5-6.05,9.19s1,4.81,2.92,6.21c1.73,1.28,6.07.85,6.73-.12a3.51,3.51,0,0,0,.68-1.77,1.66,1.66,0,0,1-1.28-2C872,530.48,873.67,529.51,874.29,532.25Z" transform="translate(-752.37 -385.82)"/><polygon class="cls-18" points="134.3 174.75 140 161.48 135.59 159.05 130.13 170.48 134.3 174.75"/><path class="cls-14" d="M888,544.88s-.78-5.89.72-6.5,1.68,1.8,1.68,1.8,1.24-2.88,3.18-3,3.35,2.38,2.65,5.12-3.82,5-3.82,5Z" transform="translate(-752.37 -385.82)"/><path class="cls-9" d="M1087.78,583.53l-16.92,9.77a17.8,17.8,0,0,1-17.8,0l-124.3-71.76a6.09,6.09,0,0,1,0-10.55l16.92-9.77a17.8,17.8,0,0,1,17.8,0L1087.78,573A6.09,6.09,0,0,1,1087.78,583.53Z" transform="translate(-752.37 -385.82)"/><path class="cls-21" d="M964.63,519.41l8.3,4.66-7.19,10H950.39l-21.63-12.49a6,6,0,0,1-2.17-2.13Z" transform="translate(-752.37 -385.82)"/><path class="cls-22" d="M982,492.8l87.7,50.64a5.55,5.55,0,0,0,8.32-4.8V474.33a14,14,0,0,0-7-12.08l-87.7-50.63a5.54,5.54,0,0,0-8.32,4.8v64.31A13.94,13.94,0,0,0,982,492.8Z" transform="translate(-752.37 -385.82)"/><polygon class="cls-23" points="266.37 80.01 266.37 63.32 251.69 71.54 266.37 80.01"/><path class="cls-24" d="M992.26,438.91c0,4.2,2.56,9.09,5.72,10.92s5.71-.12,5.71-4.32-2.55-9.1-5.71-10.93S992.26,434.7,992.26,438.91Z" transform="translate(-752.37 -385.82)"/><line class="cls-25" x1="311.44" y1="93.7" x2="285.18" y2="78.54"/><line class="cls-25" x1="311.44" y1="106.61" x2="285.18" y2="91.44"/><line class="cls-25" x1="311.44" y1="119.51" x2="285.18" y2="104.35"/><line class="cls-25" x1="311.44" y1="132.41" x2="285.18" y2="117.25"/><line class="cls-25" x1="264.46" y1="93.68" x2="238.19" y2="78.52"/><line class="cls-25" x1="264.46" y1="106.58" x2="238.19" y2="91.42"/><path class="cls-15" d="M961.79,522.52s-3.62,5-3.4,6.44,2.65,1.15,5.39,0,4.39-2,4.79-3a4.26,4.26,0,0,0,.15-2.17Z" transform="translate(-752.37 -385.82)"/><path class="cls-15" d="M968,526.62s-3.62,5-3.4,6.45,2.65,1.15,5.38-.05,4.4-2,4.8-3a4.38,4.38,0,0,0,.15-2.17Z" transform="translate(-752.37 -385.82)"/><path class="cls-26" d="M976.82,496.87l-1.85,31s-.73.79-3.1.53a6.79,6.79,0,0,1-3.83-1.77l-.22-2.78a8.07,8.07,0,0,1-3.18.4,5.58,5.58,0,0,1-3.09-1.32l-.44-31.17,1.1-4.46L976,491.75Z" transform="translate(-752.37 -385.82)"/><path class="cls-27" d="M964.71,465.08s-2.46.92-3.32,5.44a25.53,25.53,0,0,0-.28,8.06l-6.74-.36-.87,4.31a.85.85,0,0,0,.75,1c2.4.23,8.66.75,9.9-.1C965.7,482.39,967.77,462.54,964.71,465.08Z" transform="translate(-752.37 -385.82)"/><path class="cls-28" d="M972.12,467.16l-6.29-.59s-2.85,8-3.05,10.86,0,10.95,0,10.95l6.62,3.82Z" transform="translate(-752.37 -385.82)"/><path class="cls-29" d="M965.78,464.25a6.66,6.66,0,0,0-3.53,3.49,23.7,23.7,0,0,0-1.41,9.53c.12,1.86.4,4.64.57,6.25a9.83,9.83,0,0,1-.06,2.54l-1,6.14,3.18,3.09s.62-21.29,1-23.85a6.92,6.92,0,0,1,2.14-4.06v-1.74Z" transform="translate(-752.37 -385.82)"/><path class="cls-20" d="M963.78,460a3.47,3.47,0,0,1-2.12-.78,2.43,2.43,0,0,1-.93-1.67s-1-.15-1.22-1.85a2.12,2.12,0,0,1,1.11-2.28s-1.36-1.72-.29-2.82a1.24,1.24,0,0,1,1.45-.41,2.64,2.64,0,0,1,1.67-2.5,4.14,4.14,0,0,1,3,0,2.92,2.92,0,0,1,3-1.2c2.26.2,2.26,1.2,2.26,1.2s2.84-.4,4.1.79a3.32,3.32,0,0,1,1.26,2.12,4,4,0,0,1,2.58,2.91,4.37,4.37,0,0,1-.49,3.1,2.23,2.23,0,0,1,.49,1.41,1.38,1.38,0,0,1-.59,1.2,2.52,2.52,0,0,1,.13,2,2.92,2.92,0,0,1-1.66,1.26,3.86,3.86,0,0,1-1.45,2.32,2.15,2.15,0,0,1-2.2.21,2.22,2.22,0,0,1-2.17,1.18C970.27,466,963.78,460,963.78,460Z" transform="translate(-752.37 -385.82)"/><polygon class="cls-30" points="214.32 79.81 214.32 82.4 214.99 83.46 218.23 83.46 219.75 81.34 219.75 74.58 217.03 73.4 214.32 79.81"/><path class="cls-14" d="M964.2,460.23s-.18,3.18.88,4.68,2,1.41,3.35,1.24,2.21-.89,3-2.47.79-6.45-.53-8.13-6.65-4.23-6.73-1.23S964.2,460.23,964.2,460.23Z" transform="translate(-752.37 -385.82)"/><path class="cls-14" d="M971.94,459.23a1.56,1.56,0,0,1,1.25,1.39c.09.8-.25,2.17-1.36,1.62S971.94,459.23,971.94,459.23Z" transform="translate(-752.37 -385.82)"/><path class="cls-29" d="M972.12,467.16s-3.07,3.4-3.51,6.93-.54,24-.54,24a20.63,20.63,0,0,0,4.69,1.24c2,.18,4.59-1.59,4.59-1.59a69,69,0,0,1-.53-9.16c.12-5.51,1-11.08,1-13C977.79,472,976,469.41,972.12,467.16Z" transform="translate(-752.37 -385.82)"/><path class="cls-27" d="M975.77,471.56s-2.15-.95-3.12,5.56a48.13,48.13,0,0,0-.55,8l-4.46-5.61-1.18,3.68a2,2,0,0,0,.28,1.81c1.56,2.2,5.83,7.84,7.76,6.52C976,490.49,979.36,472.72,975.77,471.56Z" transform="translate(-752.37 -385.82)"/><path class="cls-14" d="M967.6,479.14s0-2.83-.67-3.74-2-2.7-2.4-2c-.3.46,1.09,2.2,1.09,2.2a1.57,1.57,0,0,0-1.15.53,4.41,4.41,0,0,0-1,3.62c.29,1.64,3.13,4.18,3.13,4.18A3.75,3.75,0,0,0,967.6,479.14Z" transform="translate(-752.37 -385.82)"/><path class="cls-14" d="M954.85,478s-1-2.4-1.83-2.24-.17,1.41-.17,1.41-2.82-1.13-4-.76-.76,3.28.53,4.7,4.45,1.67,4.45,1.67S956.08,481.21,954.85,478Z" transform="translate(-752.37 -385.82)"/><path class="cls-2" d="M829.5,578.77a2.41,2.41,0,0,1,2.41,0l5.63,3.25a1.67,1.67,0,0,1,.16.12l.51-.19v1.24a1.34,1.34,0,0,1-.67,1.17l-6.16,3.55a2.69,2.69,0,0,1-2.69,0L824,585.22l-3.39,2-2.85-1.65Z" transform="translate(-752.37 -385.82)"/><path class="cls-6" d="M817.79,584.3l11.71-6.77a2.41,2.41,0,0,1,2.41,0l5.63,3.25a1.35,1.35,0,0,1,0,2.34l-6.16,3.55a2.69,2.69,0,0,1-2.69,0L824,584l-3.39,2Z" transform="translate(-752.37 -385.82)"/><path class="cls-17" d="M844.33,611.34a1,1,0,0,0,.92-.53,1.07,1.07,0,0,0-.39-1.45L832,601.93a1.06,1.06,0,0,0-1,1.84l12.86,7.43A1,1,0,0,0,844.33,611.34Z" transform="translate(-752.37 -385.82)"/><path class="cls-17" d="M830.83,607.15l.19,0a1.06,1.06,0,0,0,.85-1.24l-1.1-6-2-10.07a1,1,0,0,0-.6-.76,1,1,0,0,0-1,0L813.64,597a1.06,1.06,0,0,0,1.06,1.84l12.29-7.1,1.7,8.61,1.1,5.95A1.06,1.06,0,0,0,830.83,607.15Z" transform="translate(-752.37 -385.82)"/><path class="cls-17" d="M817.29,603.42l10.9-6.4a6.53,6.53,0,0,1,6.55,0l5,2.88a3,3,0,0,1,1,.94l.54,0v1.75h0a3,3,0,0,1-1.57,2.63l-12.87,7.34-12.63-7.33v-1.68Z" transform="translate(-752.37 -385.82)"/><path class="cls-6" d="M839.67,603.54l-12.87,7.33-12.63-7.33,14-8.2a6.55,6.55,0,0,1,6.55,0l5,2.88A3.06,3.06,0,0,1,839.67,603.54Z" transform="translate(-752.37 -385.82)"/><path class="cls-6" d="M812.2,578l-.29-.34,1.14-.54a2.3,2.3,0,0,1,.5-.24c2.22-.71,3.2,3.31,6.58,4.57s6.36,0,8.21,2.78,1.72,9-.16,10h0l-1.39.67-.29-.33a16.73,16.73,0,0,1-9.49-2.95s-4-2.46-5-5.24C811.19,584.26,810.9,580.11,812.2,578Z" transform="translate(-752.37 -385.82)"/><path class="cls-2" d="M815.56,592.42s-4-2.47-5-5.25-1.21-8.64,1.58-9.54c2.21-.72,3.2,3.31,6.57,4.57s6.36,0,8.21,2.78,1.73,9.4-.33,10.13S820.13,595.31,815.56,592.42Z" transform="translate(-752.37 -385.82)"/><path class="cls-17" d="M826.8,627.11a1.06,1.06,0,0,0,1.06-1.06l0-15.41-4.3-19.12a1.06,1.06,0,0,0-2.06.46l4.27,19v15.06A1.05,1.05,0,0,0,826.8,627.11Z" transform="translate(-752.37 -385.82)"/><path class="cls-17" d="M815.05,620.32a1.06,1.06,0,0,0,1.06-1.06V603.89l-3-17.06a1.06,1.06,0,1,0-2.09.36l2.93,17v15.1A1.07,1.07,0,0,0,815.05,620.32Z" transform="translate(-752.37 -385.82)"/><path class="cls-17" d="M826.8,623.14a1,1,0,0,0,.91-.53,1.06,1.06,0,0,0-.38-1.45l-11.75-6.78a1.06,1.06,0,0,0-1.06,1.84L826.27,623A1,1,0,0,0,826.8,623.14Z" transform="translate(-752.37 -385.82)"/><path class="cls-17" d="M848,617.18a1.05,1.05,0,0,0,.89-1.62l-7.51-12-2-9.87a1,1,0,0,0-.6-.76,1.07,1.07,0,0,0-1,.05l-13.57,7.83a1.06,1.06,0,1,0,1.06,1.84l12.29-7.1,1.7,8.61a.93.93,0,0,0,.14.36l7.62,12.18A1,1,0,0,0,848,617.18Z" transform="translate(-752.37 -385.82)"/><path class="cls-2" d="M834.65,594l3.23-1.87a1.74,1.74,0,0,1,1.54-.08l.64-.26v1h0a.88.88,0,0,1-.44.86l-8.1,4.67a.92.92,0,0,1-1,0l-1.25-.71a.35.35,0,0,1-.17-.3v-1.12Z" transform="translate(-752.37 -385.82)"/><path class="cls-6" d="M829.3,596.5l1.25.71a.92.92,0,0,0,1,0l8.1-4.67a.91.91,0,0,0,0-1.58h0a1.73,1.73,0,0,0-1.73,0l-8.58,5A.34.34,0,0,0,829.3,596.5Z" transform="translate(-752.37 -385.82)"/><path class="cls-14" d="M893.74,593.47s.8,8.47,0,10-3.11,1.39-3.11,1.39v1.92h-4L885,596.71Z" transform="translate(-752.37 -385.82)"/><path class="cls-15" d="M916.25,648.29s4.31-.72,5.57,0,.66,3-.93,3.45-7.18,2.37-8.32.89a7.84,7.84,0,0,1-1.15-4.07Z" transform="translate(-752.37 -385.82)"/><path class="cls-31" d="M894.16,628.23s6.19-6.36,9.91-6.53,4.7,8.93,4.7,8.93l-14.1,4.6Z" transform="translate(-752.37 -385.82)"/><path class="cls-17" d="M909.36,648.1a1.06,1.06,0,0,0,.53-2L897,638.69a1.07,1.07,0,0,0-1.45.39,1.06,1.06,0,0,0,.39,1.45L908.83,648A1,1,0,0,0,909.36,648.1Z" transform="translate(-752.37 -385.82)"/><path class="cls-17" d="M882.32,640.18l10.89-6.4a6.53,6.53,0,0,1,6.55,0l5,2.88a2.91,2.91,0,0,1,1,1l.53,0v1.75h0A3,3,0,0,1,904.7,642l-12.88,7.34L879.2,642V640.3Z" transform="translate(-752.37 -385.82)"/><path class="cls-2" d="M904.7,640.3l-12.88,7.33L879.2,640.3l14-8.2a6.55,6.55,0,0,1,6.55,0l5,2.88A3.05,3.05,0,0,1,904.7,640.3Z" transform="translate(-752.37 -385.82)"/><path class="cls-32" d="M881.43,631.75s.41,5.66,2.09,7.25,8.57,4.86,11.83,4.33,14.83-5.76,14.83-5.76l.53,12.64s4.06,1.24,5.57-.35.57-18.8-.45-20.31c-1.7-2.51-20.3,1.68-20.3,1.68Z" transform="translate(-752.37 -385.82)"/><path class="cls-33" d="M881.4,605.54s-1.59,1-2.2,4.59a42.25,42.25,0,0,0-.6,6.71s2,13.15,2.45,14.39,7.62,5.92,10.42,5.3,5.28-4.37,5-5.9-2.07-9.29-1.82-12.11.59-7.84-1-9.35a13.44,13.44,0,0,0-3.84-2.39Z" transform="translate(-752.37 -385.82)"/><path class="cls-6" d="M877.23,614.8l-.3-.34,1.14-.54a2.38,2.38,0,0,1,.51-.24c2.21-.71,3.2,3.32,6.58,4.57s6.35,0,8.21,2.78,1.72,9-.17,10h0l-1.39.67-.28-.33a16.76,16.76,0,0,1-9.5-2.95s-4-2.46-5-5.24C876.21,621,875.92,616.87,877.23,614.8Z" transform="translate(-752.37 -385.82)"/><path class="cls-2" d="M880.59,629.18s-4.05-2.47-5.05-5.25-1.2-8.64,1.58-9.54c2.22-.72,3.2,3.31,6.58,4.57s6.36,0,8.21,2.78,1.72,9.4-.33,10.13S885.16,632.07,880.59,629.18Z" transform="translate(-752.37 -385.82)"/><path class="cls-17" d="M891.82,663.87a1.05,1.05,0,0,0,1.06-1l0-15.42-4.29-19.12a1.06,1.06,0,0,0-2.07.46l4.27,19v15.07A1.06,1.06,0,0,0,891.82,663.87Z" transform="translate(-752.37 -385.82)"/><path class="cls-17" d="M880.08,657.08a1.07,1.07,0,0,0,1.06-1.06l0-15.37-3-17.07a1.06,1.06,0,1,0-2.08.37l2.93,17V656A1.06,1.06,0,0,0,880.08,657.08Z" transform="translate(-752.37 -385.82)"/><path class="cls-17" d="M891.82,659.9a1.06,1.06,0,0,0,.53-2l-11.74-6.77a1.06,1.06,0,1,0-1.06,1.83l11.74,6.78A1,1,0,0,0,891.82,659.9Z" transform="translate(-752.37 -385.82)"/><path class="cls-17" d="M913,653.94a1,1,0,0,0,.56-.16,1.06,1.06,0,0,0,.34-1.46l-7.51-12-1.95-9.87a1.06,1.06,0,0,0-1.57-.71l-13.58,7.83a1.06,1.06,0,0,0-.38,1.45,1.05,1.05,0,0,0,1.44.39l12.3-7.1,1.7,8.61a.93.93,0,0,0,.14.36l7.61,12.18A1,1,0,0,0,913,653.94Z" transform="translate(-752.37 -385.82)"/><path class="cls-2" d="M899.67,630.72l3.24-1.87a1.74,1.74,0,0,1,1.54-.08l.64-.26v1h0a.87.87,0,0,1-.43.86l-8.1,4.67a.94.94,0,0,1-1,0l-1.24-.71a.35.35,0,0,1-.17-.29V633Z" transform="translate(-752.37 -385.82)"/><path class="cls-6" d="M894.33,633.26l1.24.71a.94.94,0,0,0,1,0l8.1-4.67a.92.92,0,0,0,0-1.58h0a1.73,1.73,0,0,0-1.73,0l-8.58,4.95A.34.34,0,0,0,894.33,633.26Z" transform="translate(-752.37 -385.82)"/><path class="cls-32" d="M892.17,608.63a4.72,4.72,0,0,0-1.41,7c2.25,3.57,6.89,13.75,10.15,14.3,2.87.48,3.71-1.5,2.83-4.42S895.2,606.6,892.17,608.63Z" transform="translate(-752.37 -385.82)"/><path class="cls-32" d="M891.12,607.39a7.9,7.9,0,0,1-4,.51c-2.38-.26-5.72-2.36-5.72-2.36v-1.41a40,40,0,0,0,5.72,1.41c2.58.38,4,.5,4,.5l.81,1.81Z" transform="translate(-752.37 -385.82)"/><path class="cls-20" d="M890.17,600.42l.92-.66s-.33-3.58,0-4.24,2.69-.53,3-2.78-2.47-5.16-3.92-5.5-.93.86-.93.86a8.54,8.54,0,0,0-2.25-.52c-.86,0-.33.66-.33.66l-2-.07c-.2,0,0,.8,0,.8s-3.91.92-5.43,2.84-.07,8.48.73,10.66,2,2.76,4.07,3.07a6,6,0,0,0,4.25-.94c.88-.51,1-2.33,1-2.33a2.46,2.46,0,0,1-.53-2.15C888.91,598.63,889.77,597.71,890.17,600.42Z" transform="translate(-752.37 -385.82)"/><path class="cls-14" d="M943.83,563.37s.79,8.48,0,10-3.11,1.39-3.11,1.39v1.92h-4l-1.66-10.06Z" transform="translate(-752.37 -385.82)"/><path class="cls-26" d="M966.34,618.2s4.31-.73,5.56,0,.67,3-.92,3.44-7.18,2.38-8.32.89a7.84,7.84,0,0,1-1.15-4.07Z" transform="translate(-752.37 -385.82)"/><path class="cls-30" d="M944.25,598.13s7.92-2.76,11.64-2.93,4.09,6.87,4.09,6.87l-15.22,3.07Z" transform="translate(-752.37 -385.82)"/><path class="cls-17" d="M959.45,618a1.06,1.06,0,0,0,.53-2l-12.87-7.43a1.06,1.06,0,1,0-1.06,1.83l12.87,7.43A1,1,0,0,0,959.45,618Z" transform="translate(-752.37 -385.82)"/><path class="cls-17" d="M932.41,610.08l10.89-6.4a6.55,6.55,0,0,1,6.55,0l5,2.88a3.11,3.11,0,0,1,1,.95l.53,0v1.75h0a3,3,0,0,1-1.57,2.63l-12.87,7.33-12.63-7.33v-1.67Z" transform="translate(-752.37 -385.82)"/><path class="cls-6" d="M954.78,610.2l-12.87,7.33-12.63-7.32,14-8.2a6.55,6.55,0,0,1,6.55,0l5,2.88A3.05,3.05,0,0,1,954.78,610.2Z" transform="translate(-752.37 -385.82)"/><path class="cls-14" d="M931.51,601.65s.42,5.67,2.1,7.25,8.56,4.86,11.83,4.33,12-7.69,12-7.69h0a15.39,15.39,0,0,0,1.62,8.06l3.46,6.88s2.33.87,3.83-.72-4.47-20.12-5.41-21.68c-2.65-4.41-15.33,3-15.33,3Z" transform="translate(-752.37 -385.82)"/><path class="cls-26" d="M957.45,605.54s2.75-6.68,0-8.86a5.14,5.14,0,0,0-5.34-.86l-11,2.59-9.57,3.24s0,5.31,1.86,7.87,9,5.31,13.21,3.71S957.45,605.54,957.45,605.54Z" transform="translate(-752.37 -385.82)"/><path class="cls-34" d="M931.49,575.44s-1.59,1-2.21,4.6a42.82,42.82,0,0,0-.59,6.7s2,13.15,2.45,14.39,7.61,5.92,10.42,5.3,5.28-4.37,5-5.89-2.07-9.29-1.82-12.12.59-7.84-1-9.35a13.58,13.58,0,0,0-3.84-2.39Z" transform="translate(-752.37 -385.82)"/><path class="cls-6" d="M927.32,584.71l-.3-.35,1.14-.53a2.38,2.38,0,0,1,.51-.24c2.21-.72,3.2,3.31,6.57,4.57s6.36,0,8.21,2.77,1.73,9-.16,10v0l-1.39.66-.28-.32a16.78,16.78,0,0,1-9.5-3s-4-2.46-5-5.24C926.3,590.92,926,586.77,927.32,584.71Z" transform="translate(-752.37 -385.82)"/><path class="cls-2" d="M930.68,599.08s-4-2.46-5-5.24-1.2-8.64,1.58-9.55c2.22-.72,3.2,3.31,6.58,4.57s6.35,0,8.21,2.78,1.72,9.41-.33,10.13S935.24,602,930.68,599.08Z" transform="translate(-752.37 -385.82)"/><path class="cls-17" d="M941.91,633.78a1.07,1.07,0,0,0,1.06-1.06l0-15.42-4.29-19.12a1.06,1.06,0,1,0-2.07.47l4.27,19v15.07A1.06,1.06,0,0,0,941.91,633.78Z" transform="translate(-752.37 -385.82)"/><path class="cls-17" d="M930.17,627a1.07,1.07,0,0,0,1.06-1.06l0-15.37-3-17.06a1.06,1.06,0,1,0-2.09.36l2.94,17v15.09A1.06,1.06,0,0,0,930.17,627Z" transform="translate(-752.37 -385.82)"/><path class="cls-17" d="M941.91,629.8a1.07,1.07,0,0,0,.92-.53,1.05,1.05,0,0,0-.39-1.44l-11.74-6.78a1.06,1.06,0,1,0-1.06,1.83l11.74,6.78A1,1,0,0,0,941.91,629.8Z" transform="translate(-752.37 -385.82)"/><path class="cls-17" d="M963.1,623.85a1.07,1.07,0,0,0,.9-1.63l-7.51-12-2-9.88a1.06,1.06,0,0,0-1.57-.71l-13.58,7.84a1.06,1.06,0,0,0,1.06,1.83l12.29-7.09,1.7,8.61a1.19,1.19,0,0,0,.15.35l7.61,12.19A1.07,1.07,0,0,0,963.1,623.85Z" transform="translate(-752.37 -385.82)"/><path class="cls-2" d="M949.76,600.62l3.24-1.87a1.69,1.69,0,0,1,1.53-.07l.65-.27v1.05h0a.89.89,0,0,1-.43.86l-8.1,4.68a1,1,0,0,1-1,0l-1.24-.72a.33.33,0,0,1-.17-.29v-1.13Z" transform="translate(-752.37 -385.82)"/><path class="cls-6" d="M944.42,603.16l1.24.72a1,1,0,0,0,1,0l8.1-4.68a.92.92,0,0,0,0-1.58h0a1.78,1.78,0,0,0-1.73,0l-8.58,5A.33.33,0,0,0,944.42,603.16Z" transform="translate(-752.37 -385.82)"/><path class="cls-26" d="M942.26,578.53a4.73,4.73,0,0,0-1.41,7c2.25,3.57,6.89,13.75,10.15,14.3,2.87.49,3.71-1.5,2.83-4.41S945.29,576.5,942.26,578.53Z" transform="translate(-752.37 -385.82)"/><path class="cls-26" d="M941.21,577.29a8,8,0,0,1-4,.52c-2.39-.27-5.72-2.37-5.72-2.37V574a40,40,0,0,0,5.72,1.41c2.58.38,4,.51,4,.51l.81,1.81Z" transform="translate(-752.37 -385.82)"/><path class="cls-35" d="M940.73,570.1s3.46-2.43,4-5.7-.12-4.57-1.46-5.5a6.08,6.08,0,0,0-3.44-.77,4.34,4.34,0,0,0-3.81-1.71c-2.74,0-6,2.51-7.36,7.54s2,10,4.45,11.48,5.56-.53,6.09-2l.53-1.41a2.28,2.28,0,0,1-.93-2.34C939,567.93,940.73,568.39,940.73,570.1Z" transform="translate(-752.37 -385.82)"/><path class="cls-20" d="M930.17,567.83s-3.32.45-4.58,4.6,1.07,8,1.63,11.07-.64,5.47-.24,6.06,5.53.55,7.15-6.55A21.93,21.93,0,0,0,933,570,2.6,2.6,0,0,0,930.17,567.83Z" transform="translate(-752.37 -385.82)"/></svg>